name C:\Users\Nicos\Documents\OpenSimProjects\SprintingProject\Study1\PredictiveResults\IC_pred_Sprinting_optimum_28-October-2023__16-43-06___IKTD_Plus_4_p02_maxVel_01.mot
datacolumns 38
datarows 11
range 0.10875282 0.11857774
endheader
                time	/jointset/ground_pelvis/pelvis_tilt/value	/jointset/ground_pelvis/pelvis_list/value	/jointset/ground_pelvis/pelvis_rotation/value	/jointset/ground_pelvis/pelvis_tx/value	/jointset/ground_pelvis/pelvis_ty/value	/jointset/ground_pelvis/pelvis_tz/value	/jointset/hip_r/hip_flexion_r/value	/jointset/hip_r/hip_adduction_r/value	/jointset/hip_r/hip_rotation_r/value	/jointset/knee_r/knee_angle_r/value	/jointset/ankle_r/ankle_angle_r/value	/jointset/subtalar_r/subtalar_angle_r/value	/jointset/mtp_r/mtp_angle_r/value	/jointset/hip_l/hip_flexion_l/value	/jointset/hip_l/hip_adduction_l/value	/jointset/hip_l/hip_rotation_l/value	/jointset/knee_l/knee_angle_l/value	/jointset/ankle_l/ankle_angle_l/value	/jointset/subtalar_l/subtalar_angle_l/value	/jointset/mtp_l/mtp_angle_l/value	/jointset/back/lumbar_extension/value	/jointset/back/lumbar_bending/value	/jointset/back/lumbar_rotation/value	/jointset/acromial_r/arm_flex_r/value	/jointset/acromial_r/arm_add_r/value	/jointset/acromial_r/arm_rot_r/value	/jointset/elbow_r/elbow_flex_r/value	/jointset/radioulnar_r/pro_sup_r/value	/jointset/radius_hand_r/wrist_flex_r/value	/jointset/radius_hand_r/wrist_dev_r/value	/jointset/acromial_l/arm_flex_l/value	/jointset/acromial_l/arm_add_l/value	/jointset/acromial_l/arm_rot_l/value	/jointset/elbow_l/elbow_flex_l/value	/jointset/radioulnar_l/pro_sup_l/value	/jointset/radius_hand_l/wrist_flex_l/value	/jointset/radius_hand_l/wrist_dev_l/value	
          0.10875282	         -9.27704857	          4.33948219	        -18.63344494	          0.63580973	          0.96133446	          0.30628412	          7.51817895	         -6.65944811	          9.78780438	        -26.95926134	         12.11176407	         -7.69822763	         13.51876497	         59.81365000	        -11.27855076	         -5.97186175	       -135.10298781	          1.10101073	        -24.43350612	          8.87630459	        -11.24656970	         -0.21437300	          8.28895758	         60.87434622	        -13.18427183	        -12.50371883	        117.77733346	         88.69266575	        -15.25189219	          7.75146129	        -50.89476219	         -6.13213891	         -2.19492529	         89.66076714	         63.06218518	         -4.29199370	          8.21760270	
          0.11023404	         -9.26682947	          4.61118647	        -18.47618969	          0.65389265	          0.96092819	          0.30591650	          6.91167685	         -7.27360961	          9.49694131	        -27.50959673	         11.30131711	         -7.94157976	         12.73689471	         61.02070658	        -10.89042617	         -5.67737102	       -134.90363543	          1.11605562	        -24.40484078	          9.67729452	        -11.07597680	         -0.49074527	          8.21405385	         62.30535263	        -12.63441627	        -11.91831004	        118.16226473	         88.46183942	        -15.02096688	          7.88436008	        -52.45486508	         -5.69747974	         -2.58918422	         90.61825715	         62.47047630	         -4.42088586	          8.17227787	
          0.11023404	         -9.26682947	          4.61118647	        -18.47618969	          0.65389265	          0.96092819	          0.30591650	          6.91167685	         -7.27360961	          9.49694131	        -27.50959673	         11.30131711	         -7.94157976	         12.73689471	         61.02070658	        -10.89042617	         -5.67737102	       -134.90363543	          1.11605562	        -24.40484078	          9.67729452	        -11.07597680	         -0.49074527	          8.21405385	         62.30535263	        -12.63441627	        -11.91831004	        118.16226473	         88.46183942	        -15.02096688	          7.88436008	        -52.45486508	         -5.69747974	         -2.58918422	         90.61825715	         62.47047630	         -4.42088586	          8.17227787	
          0.11088089	         -9.26301955	          4.72826054	        -18.40297826	          0.66179228	          0.96075941	          0.30575560	          6.65075662	         -7.53930786	          9.35993339	        -27.75332814	         10.91099277	         -8.05506084	         12.39988939	         61.54323463	        -10.72064414	         -5.55164756	       -134.80267720	          1.11846273	        -24.39252020	         10.01880208	        -11.00151861	         -0.61004080	          8.17802866	         62.91981032	        -12.39442971	        -11.65288859	        118.30337260	         88.35956946	        -14.92009669	          7.93973618	        -53.12824317	         -5.51584583	         -2.75460615	         91.02058544	         62.20960586	         -4.48027637	          8.15252073	
          0.11292467	         -9.24626589	          5.07997756	        -18.15533755	          0.68676085	          0.96027442	          0.30524455	          5.82837510	         -8.35755166	          8.89413816	        -28.53006634	          9.52406988	         -8.44594797	         11.28280633	         63.16504627	        -10.18999789	         -5.15960970	       -134.42950646	          1.10711586	        -24.35554959	         11.06093547	        -10.78010237	         -0.97060030	          8.05398119	         64.82241124	        -11.63876815	        -10.78539718	        118.63695246	         88.03278873	        -14.60138687	          8.10410226	        -55.21651021	         -4.97324405	         -3.24156597	         92.21606802	         61.37537874	         -4.67986556	          8.08996150	
          0.11440589	         -9.23017138	          5.31154801	        -17.97034836	          0.70485510	          0.95996970	          0.30488251	          5.23668801	         -8.92098594	          8.54248751	        -29.09954406	          8.38254997	         -8.76689556	         10.34900612	         64.31009459	         -9.82449806	         -4.87900449	       -134.10890097	          1.08111736	        -24.32853484	         11.77323992	        -10.63521840	         -1.21084801	          7.96547065	         66.16483646	        -11.09496498	        -10.13955078	        118.76933485	         87.79430739	        -14.37040461	          8.21184111	        -56.68690046	         -4.60931929	         -3.55353017	         92.99992940	         60.76247619	         -4.83488295	          8.04454648	
          0.11440589	         -9.23017138	          5.31154801	        -17.97034836	          0.70485510	          0.95996970	          0.30488251	          5.23668801	         -8.92098594	          8.54248751	        -29.09954406	          8.38254997	         -8.76689556	         10.34900612	         64.31009459	         -9.82449806	         -4.87900449	       -134.10890097	          1.08111736	        -24.32853484	         11.77323992	        -10.63521840	         -1.21084801	          7.96547065	         66.16483646	        -11.09496498	        -10.13955078	        118.76933485	         87.79430739	        -14.37040461	          8.21184111	        -56.68690046	         -4.60931929	         -3.55353017	         92.99992940	         60.76247619	         -4.83488295	          8.04454648	
          0.11505274	         -9.22223749	          5.40511016	        -17.89063794	          0.71275387	          0.95984915	          0.30472936	          4.98013213	         -9.15700774	          8.38957843	        -29.35007896	          7.84933754	         -8.92024678	          9.88705234	         64.80147248	         -9.67326667	         -4.75709125	       -133.95597772	          1.06515310	        -24.31613197	         12.07106723	        -10.57662157	         -1.30893688	          7.92994331	         66.74154031	        -10.85883009	         -9.85560880	        118.79762195	         87.69008021	        -14.26953440	          8.25562629	        -57.31622242	         -4.45801969	         -3.67719584	         93.31780739	         60.49294238	         -4.90504484	          8.02467947	
          0.11709652	         -9.19887579	          5.66970150	        -17.66031667	          0.73768256	          0.95951074	          0.30428435	          4.19118312	         -9.85702534	          7.93390422	        -30.15386042	          6.04747057	         -9.43353758	          8.28009941	         66.32149308	         -9.24760192	         -4.37831711	       -133.42215130	          0.99787312	        -24.27080881	         12.95289891	        -10.40508805	         -1.59109739	          7.84806441	         68.52553923	        -10.12418799	         -8.94626575	        118.76642149	         87.35982879	        -13.95082427	          8.38046223	        -59.24840084	         -4.01031432	         -4.01146585	         94.21327037	         59.63479603	         -5.13534551	          7.96175379	
          0.11857774	         -9.18390754	          5.83157228	        -17.52098165	          0.75571523	          0.95930529	          0.30400568	          3.64434098	        -10.32046757	          7.63863126	        -30.74755144	          4.62971949	         -9.83095207	          7.05946084	         67.39072438	         -8.99575416	         -4.11041365	       -132.98738865	          0.93415724	        -24.22984279	         13.52942743	        -10.29375601	         -1.76926943	          7.82419606	         69.78211028	         -9.60318482	         -8.28312228	        118.62752828	         87.11969444	        -13.71984250	          8.45819077	        -60.59092559	         -3.71423298	         -4.19543742	         94.75035480	         59.00690250	         -5.30951160	          7.91608179	
          0.11857774	         -9.18390754	          5.83157228	        -17.52098165	          0.75571523	          0.95930529	          0.30400568	          3.64434098	        -10.32046757	          7.63863126	        -30.74755144	          4.62971949	         -9.83095207	          7.05946084	         67.39072438	         -8.99575416	         -4.11041365	       -132.98738865	          0.93415724	        -24.22984279	         13.52942743	        -10.29375601	         -1.76926943	          7.82419606	         69.78211028	         -9.60318482	         -8.28312228	        118.62752828	         87.11969444	        -13.71984250	          8.45819077	        -60.59092559	         -3.71423298	         -4.19543742	         94.75035480	         59.00690250	         -5.30951160	          7.91608179	
